:SAMPLES-PER-SECOND 30
:FULLY-SPECIFIED
:DEGREES
447
root  -0.301452 34.4841 28.4685 4.0586 11.4562 -1.69867
LeftUpLeg  -11.903 5.16844 7.36065
LeftLeg  9.6522 0.59894 0.061523
LeftFoot  8.5393 -0.0128065 0.101912
LeftToes  -23.2726 2.60077e-006 -1.42232e-007
Spine  2.25906 4.11487 -1.64442
Spine1  3.98589 8.50093 -3.27016
RightShoulder  0.0771387 13.6237 0.780027
RightArm  -23.3912 16.2067 60.2917
RightForeArm  49.1445 39.3034 8.27945
RightHand  0.0570911 -0.446505 -13.9987
LeftShoulder1  0.0638874 -3.32742 -6.57368
LeftArm  -16.5547 4.70889 -68.9535
LeftForeArm  27.545 -16.1782 -2.92657
LeftHand  0.149051 3.82852 4.07997
HEad  -3.59274 -21.6894 1.78628
RightUpLeg  -7.52073 -9.40417 1.80353
RightLeg  10.9673 2.74926 0.352626
RightFoot  0.107896 -0.00441609 0.045396
RightToes  -25.6727 -0.122412 -0.225054
448
root  -0.330516 34.4873 28.4039 4.14138 11.5718 -1.75137
LeftUpLeg  -11.985 5.15244 7.4154
LeftLeg  9.31195 0.507665 0.0489715
LeftFoot  8.85965 -0.0121651 0.0910445
LeftToes  -23.5669 2.60077e-006 -1.42232e-007
Spine  2.17927 4.05091 -1.58442
Spine1  3.8241 8.36898 -3.16059
RightShoulder  0.0779074 13.1684 1.17931
RightArm  -24.2197 17.1302 60.4233
RightForeArm  48.4286 39.8813 8.45512
RightHand  0.0745639 -0.582422 -14.0638
LeftShoulder1  0.0628115 -3.2075 -6.43121
LeftArm  -16.0836 3.89895 -69.3181
LeftForeArm  27.2052 -16.8812 -3.06142
LeftHand  0.141447 3.74501 3.9472
HEad  -4.10757 -22.063 1.83348
RightUpLeg  -7.52072 -9.31719 1.9164
RightLeg  10.5042 2.56349 0.30791
RightFoot  0.443044 -0.00539657 0.0587195
RightToes  -26.1714 -0.122206 -0.224914
449
root  -0.351708 34.4807 28.3405 4.20966 11.7702 -1.81216
LeftUpLeg  -12.1746 5.23002 7.45514
LeftLeg  9.19339 0.247548 0.0228258
LeftFoot  9.01857 -0.00959073 0.0504568
LeftToes  -23.669 2.60077e-006 -1.42232e-007
Spine  2.1885 3.9821 -1.50558
Spine1  3.83241 8.22473 -2.99763
RightShoulder  0.0786485 12.6346 1.92394
RightArm  -25.1467 18.068 60.2037
RightForeArm  47.8019 40.3882 8.61173
RightHand  0.0617342 -0.48937 -13.8257
LeftShoulder1  0.0623468 -2.97987 -6.77676
LeftArm  -15.6886 3.18011 -69.3554
LeftForeArm  26.7875 -17.7572 -3.23091
LeftHand  0.138775 3.59878 4.03748
HEad  -5.21762 -22.367 1.91995
RightUpLeg  -7.67667 -9.46543 2.02314
RightLeg  10.4386 2.51812 0.299567
RightFoot  0.520206 -0.00568295 0.0623044
RightToes  -26.2326 -0.122015 -0.224802
450
root  -0.354936 34.4654 28.2867 4.22971 12.0187 -1.82068
LeftUpLeg  -12.4345 5.30917 7.41711
LeftLeg  9.37228 -0.0645324 -0.0075122
LeftFoot  8.98145 -0.00630397 -0.000871487
LeftToes  -23.5831 2.60077e-006 -1.42232e-007
Spine  2.27326 3.90141 -1.41279
Spine1  3.97825 8.05156 -2.78877
RightShoulder  0.0788488 12.6046 2.48835
RightArm  -26.6675 18.3924 59.7931
RightForeArm  47.5178 40.9944 8.80133
RightHand  0.0696876 -0.553655 -13.8154
LeftShoulder1  0.0623682 -2.39091 -7.83028
LeftArm  -14.8846 2.28732 -68.9748
LeftForeArm  26.7737 -18.4621 -3.36846
LeftHand  0.129521 3.4166 3.96275
HEad  -6.2491 -22.3961 1.67502
RightUpLeg  -7.90583 -9.71938 2.03701
RightLeg  10.7176 2.53756 0.314375
RightFoot  0.374939 -0.00547417 0.0590172
RightToes  -26.1481 -0.121838 -0.224714
451
root  -0.352331 34.453 28.2443 4.18325 12.1969 -1.8421
LeftUpLeg  -12.6073 5.46925 7.39291
LeftLeg  9.57727 -0.398375 -0.0422418
LeftFoot  8.90164 -0.00277692 -0.0555935
LeftToes  -23.4699 2.60077e-006 -1.42232e-007
Spine  2.36141 3.9814 -1.37878
Spine1  4.13114 8.20094 -2.69522
RightShoulder  0.0787988 12.7501 2.76356
RightArm  -28.1942 17.7978 59.2822
RightForeArm  47.3983 41.6463 9.00897
RightHand  0.0600461 -0.47933 -13.7239
LeftShoulder1  0.0627503 -1.99718 -8.71092
LeftArm  -14.4533 1.53358 -68.7494
LeftForeArm  27.187 -18.804 -3.43542
LeftHand  0.12437 3.1282 4.17317
HEad  -6.62227 -22.7135 1.43928
RightUpLeg  -7.99682 -9.57862 2.04786
RightLeg  10.8702 2.2158 0.280667
RightFoot  0.316044 -0.00516182 0.0547161
RightToes  -26.2387 -0.121676 -0.22465
452
root  -0.346522 34.4559 28.2198 4.12451 12.449 -1.84224
LeftUpLeg  -12.6538 5.49371 7.35291
LeftLeg  9.58049 -0.688642 -0.0722529
LeftFoot  8.97765 0.000251784 -0.102221
LeftToes  -23.5065 2.60077e-006 -1.42232e-007
Spine  2.38579 4.10998 -1.35571
Spine1  4.18369 8.46368 -2.6602
RightShoulder  0.0785744 12.9853 2.66672
RightArm  -28.7226 16.468 58.672
RightForeArm  47.6573 42.0868 9.15115
RightHand  0.0328529 -0.257952 -13.798
LeftShoulder1  0.0633681 -1.72523 -8.74797
LeftArm  -14.3451 1.46521 -69.2871
LeftForeArm  27.2115 -18.8802 -3.45042
LeftHand  0.136254 3.06326 4.67149
HEad  -6.11555 -23.0816 1.39301
RightUpLeg  -7.92945 -9.62233 2.03056
RightLeg  10.7952 2.0158 0.252781
RightFoot  0.382112 -0.00507198 0.0542427
RightToes  -26.3225 -0.121527 -0.22461
453
root  -0.342173 34.4664 28.2103 4.08066 13.0073 -1.83726
LeftUpLeg  -12.6941 5.31068 7.30369
LeftLeg  9.453 -1.05534 -0.107747
LeftFoot  9.1199 0.00415776 -0.162121
LeftToes  -23.3645 2.60077e-006 -1.42232e-007
Spine  2.31095 4.17722 -1.33712
Spine1  4.05192 8.60701 -2.65314
RightShoulder  0.0784757 13.1052 2.64879
RightArm  -27.9399 14.7358 57.8425
RightForeArm  48.001 42.1295 9.16443
RightHand  0.0181108 -0.139258 -13.8049
LeftShoulder1  0.0640963 -1.62213 -8.38388
LeftArm  -14.0726 2.09259 -69.9841
LeftForeArm  26.8167 -18.7639 -3.42768
LeftHand  0.142578 3.18401 4.74629
HEad  -5.14209 -23.6133 1.23194
RightUpLeg  -7.73043 -9.79329 2.01013
RightLeg  10.4913 1.64947 0.198233
RightFoot  0.556426 -0.00473005 0.0500061
RightToes  -26.4983 -0.121391 -0.22459
